<?xml version="1.0" standalone="no"?>
<!DOCTYPE svg PUBLIC "-//W3C//DTD SVG 20010904//EN"
 "http://www.w3.org/TR/2001/REC-SVG-20010904/DTD/svg10.dtd">
<svg version="1.0" xmlns="http://www.w3.org/2000/svg"
 width="351.000000pt" height="351.000000pt" viewBox="0 0 351.000000 351.000000"
 preserveAspectRatio="xMidYMid meet">

<g transform="translate(0.000000,351.000000) scale(0.100000,-0.100000)"
fill="#000000" stroke="none">
<path d="M1596 2710 c-213 -34 -407 -128 -565 -275 -89 -83 -154 -173 -212
-290 -175 -360 -112 -787 161 -1078 100 -107 183 -168 315 -233 167 -82 236
-97 435 -98 144 -1 175 2 245 22 92 27 224 86 287 130 42 29 49 30 168 33 116
4 129 6 173 32 26 15 60 47 75 69 l27 42 3 635 c2 445 0 647 -8 674 -14 49
-74 115 -125 138 -31 15 -66 19 -158 19 -116 0 -119 1 -163 31 -68 46 -199
105 -289 129 -92 24 -278 34 -369 20z m204 -102 c0 -4 -8 -9 -18 -12 -37 -12
-82 -68 -98 -122 -14 -51 -17 -54 -47 -54 -30 0 -35 6 -78 83 -45 80 -46 82
-25 91 39 16 266 28 266 14z m-240 -206 c0 -2 -30 -45 -66 -93 l-66 -89 -113
0 -113 0 -42 73 c-24 39 -45 75 -46 79 -11 20 214 157 316 193 l35 12 48 -85
c26 -46 47 -87 47 -90z m621 83 l57 -45 139 0 c119 0 142 -3 170 -20 42 -25
60 -55 68 -111 8 -56 -1 -65 -51 -49 -43 14 -74 61 -74 110 0 20 -5 41 -12 48
-17 17 -579 17 -596 0 -7 -7 -12 -32 -12 -56 0 -35 -6 -49 -29 -73 -16 -16
-39 -29 -50 -29 -20 0 -21 5 -21 106 0 106 0 106 31 135 l31 29 146 0 146 0
57 -45z m219 -165 c0 -28 33 -90 62 -117 30 -29 89 -53 128 -53 l30 0 -2 -442
-3 -442 -44 -8 c-84 -14 -160 -99 -169 -188 l-5 -50 -216 2 -216 3 -7 48 c-12
87 -71 149 -160 171 l-28 6 0 454 0 454 47 12 c60 15 129 82 139 135 l6 35
219 0 c214 0 219 0 219 -20z m-920 -237 c29 -53 53 -101 53 -107 0 -6 -28 -57
-62 -113 l-62 -103 -114 0 -113 0 -56 105 -56 105 41 66 c22 36 51 83 66 105
l26 39 112 0 111 0 54 -97z m-395 -235 l57 -103 -33 -105 c-48 -154 -33 -140
-153 -140 -121 0 -111 -10 -128 126 -9 70 -9 116 0 192 16 141 9 132 112 132
l89 0 56 -102z m585 -128 l0 -230 -68 0 -67 0 -43 127 -42 128 62 102 62 103
48 0 48 0 0 -230z m-513 -343 l98 -83 3 -110 3 -110 -40 -22 c-21 -12 -45 -22
-53 -22 -18 0 -140 126 -191 197 -32 44 -117 209 -117 227 0 3 45 6 100 6 l99
0 98 -83z m513 -119 l-1 -193 -77 -48 c-42 -26 -83 -47 -92 -47 -8 0 -55 22
-105 49 l-90 48 0 114 0 114 115 77 c115 78 115 78 183 78 l67 0 0 -192z m948
-115 c8 -52 -60 -133 -110 -133 -14 0 -18 8 -18 35 0 49 23 89 62 108 42 21
62 18 66 -10z m-797 -13 c28 -16 49 -63 49 -115 0 -82 4 -85 138 -85 114 -1
116 -1 87 -17 -56 -30 -185 -73 -221 -73 -28 0 -44 8 -70 34 l-34 34 0 116 c0
124 3 131 51 106z m-147 -168 c3 -27 19 -69 36 -95 l29 -46 -27 4 c-15 2 -53
7 -84 10 -56 6 -58 7 -68 43 -5 20 -10 42 -10 49 0 11 94 80 111 82 4 1 9 -21
13 -47z"/>
<path d="M2147 2133 c-8 -10 -17 -31 -19 -48 -2 -25 -9 -31 -40 -38 -46 -11
-116 -70 -134 -114 -46 -109 16 -225 135 -255 l41 -10 0 -94 c0 -87 -2 -94
-20 -94 -10 0 -34 16 -53 35 -52 53 -107 45 -107 -17 0 -42 54 -96 120 -118
55 -18 55 -19 61 -65 5 -46 19 -65 50 -65 26 0 49 34 49 74 0 26 5 38 18 42
114 36 182 115 182 212 0 31 -27 92 -53 120 -24 27 -78 56 -119 66 -28 6 -28
7 -28 91 0 99 10 107 61 50 18 -19 40 -35 49 -35 24 0 50 32 50 63 0 36 -63
95 -117 110 -39 10 -43 14 -43 44 0 22 -7 37 -22 47 -29 20 -41 20 -61 -1z
m-17 -274 c0 -79 0 -80 -22 -74 -37 12 -68 46 -68 76 0 32 44 79 72 79 16 0
18 -10 18 -81z m172 -236 c27 -25 23 -85 -7 -116 -14 -13 -34 -27 -45 -30 -19
-5 -20 0 -20 89 l0 94 27 -11 c16 -6 36 -18 45 -26z"/>
</g>
</svg>
